<svg width="284" height="73" viewBox="0 0 284 73" fill="none" xmlns="http://www.w3.org/2000/svg">
<path d="M13.268 71V9.752L0.26 17.576V9.65599L13.268 1.88H20.42V71H13.268ZM61.1863 72.44C56.9303 72.44 53.0903 71.448 49.6663 69.464C46.2743 67.48 43.5863 64.792 41.6023 61.4C39.6183 57.976 38.6263 54.136 38.6263 49.88V23C38.6263 18.744 39.6183 14.92 41.6023 11.528C43.5863 8.104 46.2743 5.4 49.6663 3.41599C53.0903 1.432 56.9303 0.439999 61.1863 0.439999C65.4423 0.439999 69.2663 1.432 72.6583 3.41599C76.0823 5.4 78.7863 8.104 80.7703 11.528C82.7543 14.92 83.7463 18.744 83.7463 23V49.88C83.7463 54.136 82.7543 57.976 80.7703 61.4C78.7863 64.792 76.0823 67.48 72.6583 69.464C69.2663 71.448 65.4423 72.44 61.1863 72.44ZM61.1863 65.624C64.0343 65.624 66.6263 64.936 68.9623 63.56C71.2983 62.152 73.1543 60.28 74.5303 57.944C75.9063 55.608 76.5943 53.032 76.5943 50.216V22.664C76.5943 19.816 75.9063 17.224 74.5303 14.888C73.1543 12.552 71.2983 10.696 68.9623 9.32C66.6263 7.91199 64.0343 7.20799 61.1863 7.20799C58.3383 7.20799 55.7463 7.91199 53.4103 9.32C51.0743 10.696 49.2183 12.552 47.8423 14.888C46.4663 17.224 45.7783 19.816 45.7783 22.664V50.216C45.7783 53.032 46.4663 55.608 47.8423 57.944C49.2183 60.28 51.0743 62.152 53.4103 63.56C55.7463 64.936 58.3383 65.624 61.1863 65.624ZM98.564 71V62.792H106.772V71H98.564ZM144.155 72.44C139.899 72.44 136.059 71.448 132.635 69.464C129.243 67.48 126.555 64.792 124.571 61.4C122.587 57.976 121.595 54.136 121.595 49.88V23C121.595 18.744 122.587 14.92 124.571 11.528C126.555 8.104 129.243 5.4 132.635 3.41599C136.059 1.432 139.899 0.439999 144.155 0.439999C148.411 0.439999 152.235 1.432 155.627 3.41599C159.051 5.4 161.755 8.104 163.739 11.528C165.723 14.92 166.715 18.744 166.715 23V49.88C166.715 54.136 165.723 57.976 163.739 61.4C161.755 64.792 159.051 67.48 155.627 69.464C152.235 71.448 148.411 72.44 144.155 72.44ZM144.155 65.624C147.003 65.624 149.595 64.936 151.931 63.56C154.267 62.152 156.123 60.28 157.499 57.944C158.875 55.608 159.563 53.032 159.563 50.216V22.664C159.563 19.816 158.875 17.224 157.499 14.888C156.123 12.552 154.267 10.696 151.931 9.32C149.595 7.91199 147.003 7.20799 144.155 7.20799C141.307 7.20799 138.715 7.91199 136.379 9.32C134.043 10.696 132.187 12.552 130.811 14.888C129.435 17.224 128.747 19.816 128.747 22.664V50.216C128.747 53.032 129.435 55.608 130.811 57.944C132.187 60.28 134.043 62.152 136.379 63.56C138.715 64.936 141.307 65.624 144.155 65.624ZM202.749 72.44C198.493 72.44 194.653 71.448 191.229 69.464C187.837 67.48 185.149 64.792 183.165 61.4C181.181 57.976 180.189 54.136 180.189 49.88V23C180.189 18.744 181.181 14.92 183.165 11.528C185.149 8.104 187.837 5.4 191.229 3.41599C194.653 1.432 198.493 0.439999 202.749 0.439999C207.005 0.439999 210.829 1.432 214.221 3.41599C217.645 5.4 220.349 8.104 222.333 11.528C224.317 14.92 225.309 18.744 225.309 23V49.88C225.309 54.136 224.317 57.976 222.333 61.4C220.349 64.792 217.645 67.48 214.221 69.464C210.829 71.448 207.005 72.44 202.749 72.44ZM202.749 65.624C205.597 65.624 208.189 64.936 210.525 63.56C212.861 62.152 214.717 60.28 216.093 57.944C217.469 55.608 218.157 53.032 218.157 50.216V22.664C218.157 19.816 217.469 17.224 216.093 14.888C214.717 12.552 212.861 10.696 210.525 9.32C208.189 7.91199 205.597 7.20799 202.749 7.20799C199.901 7.20799 197.309 7.91199 194.973 9.32C192.637 10.696 190.781 12.552 189.405 14.888C188.029 17.224 187.341 19.816 187.341 22.664V50.216C187.341 53.032 188.029 55.608 189.405 57.944C190.781 60.28 192.637 62.152 194.973 63.56C197.309 64.936 199.901 65.624 202.749 65.624ZM261.343 72.44C257.087 72.44 253.247 71.448 249.823 69.464C246.431 67.48 243.743 64.792 241.759 61.4C239.775 57.976 238.783 54.136 238.783 49.88V23C238.783 18.744 239.775 14.92 241.759 11.528C243.743 8.104 246.431 5.4 249.823 3.41599C253.247 1.432 257.087 0.439999 261.343 0.439999C265.599 0.439999 269.423 1.432 272.815 3.41599C276.239 5.4 278.943 8.104 280.927 11.528C282.911 14.92 283.903 18.744 283.903 23V49.88C283.903 54.136 282.911 57.976 280.927 61.4C278.943 64.792 276.239 67.48 272.815 69.464C269.423 71.448 265.599 72.44 261.343 72.44ZM261.343 65.624C264.191 65.624 266.783 64.936 269.119 63.56C271.455 62.152 273.311 60.28 274.687 57.944C276.063 55.608 276.751 53.032 276.751 50.216V22.664C276.751 19.816 276.063 17.224 274.687 14.888C273.311 12.552 271.455 10.696 269.119 9.32C266.783 7.91199 264.191 7.20799 261.343 7.20799C258.495 7.20799 255.903 7.91199 253.567 9.32C251.231 10.696 249.375 12.552 247.999 14.888C246.623 17.224 245.935 19.816 245.935 22.664V50.216C245.935 53.032 246.623 55.608 247.999 57.944C249.375 60.28 251.231 62.152 253.567 63.56C255.903 64.936 258.495 65.624 261.343 65.624Z" fill="#4FE9A4"/>
</svg>
