<svg width="222" height="73" viewBox="0 0 222 73" fill="none" xmlns="http://www.w3.org/2000/svg">
<path d="M13.768 71V9.752L0.76 17.576V9.65599L13.768 1.88H20.92V71H13.768ZM37.2063 70.952L37.2543 64.52L68.5023 36.296C71.1903 33.864 72.9663 31.56 73.8303 29.384C74.7263 27.176 75.1743 24.872 75.1743 22.472C75.1743 19.624 74.5023 17.048 73.1583 14.744C71.8143 12.44 70.0063 10.616 67.7343 9.272C65.4623 7.896 62.9183 7.20799 60.1023 7.20799C57.1583 7.20799 54.5343 7.91199 52.2303 9.32C49.9263 10.728 48.1023 12.584 46.7583 14.888C45.4463 17.192 44.8063 19.704 44.8383 22.424H37.6383C37.6383 18.232 38.6303 14.472 40.6143 11.144C42.5983 7.816 45.2863 5.208 48.6783 3.32C52.0703 1.4 55.9103 0.439999 60.1983 0.439999C64.3903 0.439999 68.1503 1.432 71.4783 3.41599C74.8383 5.36799 77.4783 8.02399 79.3983 11.384C81.3503 14.712 82.3263 18.424 82.3263 22.52C82.3263 25.4 81.9743 27.944 81.2703 30.152C80.5983 32.328 79.5263 34.36 78.0543 36.248C76.6143 38.104 74.7743 40.024 72.5343 42.008L44.7903 67.064L43.6863 64.184H82.3263V70.952H37.2063ZM116.436 72.44C112.18 72.44 108.34 71.448 104.916 69.464C101.524 67.48 98.8363 64.792 96.8523 61.4C94.8683 57.976 93.8763 54.136 93.8763 49.88V23C93.8763 18.744 94.8683 14.92 96.8523 11.528C98.8363 8.104 101.524 5.4 104.916 3.41599C108.34 1.432 112.18 0.439999 116.436 0.439999C120.692 0.439999 124.516 1.432 127.908 3.41599C131.332 5.4 134.036 8.104 136.02 11.528C138.004 14.92 138.996 18.744 138.996 23V49.88C138.996 54.136 138.004 57.976 136.02 61.4C134.036 64.792 131.332 67.48 127.908 69.464C124.516 71.448 120.692 72.44 116.436 72.44ZM116.436 65.624C119.284 65.624 121.876 64.936 124.212 63.56C126.548 62.152 128.404 60.28 129.78 57.944C131.156 55.608 131.844 53.032 131.844 50.216V22.664C131.844 19.816 131.156 17.224 129.78 14.888C128.404 12.552 126.548 10.696 124.212 9.32C121.876 7.91199 119.284 7.20799 116.436 7.20799C113.588 7.20799 110.996 7.91199 108.66 9.32C106.324 10.696 104.468 12.552 103.092 14.888C101.716 17.224 101.028 19.816 101.028 22.664V50.216C101.028 53.032 101.716 55.608 103.092 57.944C104.468 60.28 106.324 62.152 108.66 63.56C110.996 64.936 113.588 65.624 116.436 65.624ZM214.294 71L214.342 36.968C214.342 32.968 213.222 29.832 210.982 27.56C208.774 25.256 205.958 24.104 202.534 24.104C200.582 24.104 198.678 24.552 196.822 25.448C194.966 26.344 193.43 27.784 192.214 29.768C191.03 31.752 190.438 34.344 190.438 37.544L186.262 36.344C186.166 32.632 186.886 29.384 188.422 26.6C189.99 23.816 192.134 21.656 194.854 20.12C197.606 18.552 200.71 17.768 204.166 17.768C209.382 17.768 213.558 19.384 216.694 22.616C219.83 25.816 221.398 30.152 221.398 35.624L221.35 71H214.294ZM152.422 71V19.16H158.758V31.928H159.526V71H152.422ZM183.43 71L183.478 37.448C183.478 33.32 182.374 30.072 180.166 27.704C177.99 25.304 175.11 24.104 171.526 24.104C167.942 24.104 165.046 25.336 162.838 27.8C160.63 30.232 159.526 33.48 159.526 37.544L155.302 35.24C155.302 31.912 156.086 28.936 157.654 26.312C159.222 23.656 161.366 21.576 164.086 20.072C166.806 18.536 169.894 17.768 173.35 17.768C176.646 17.768 179.574 18.472 182.134 19.88C184.726 21.288 186.758 23.336 188.23 26.024C189.702 28.712 190.438 31.976 190.438 35.816L190.39 71H183.43Z" fill="#4FE9A4"/>
</svg>
